solid nozzle
   facet normal 0.000000e+000 -1.000000e+000 0.000000e+000
      outer loop
         vertex -1.339603e+002 5.375000e+002 1.000000e+002
         vertex -1.339603e+002 5.375000e+002 -1.000000e+002
         vertex 6.250000e+001 5.375000e+002 1.000000e+002
      endloop
   endfacet
   facet normal 0.000000e+000 -1.000000e+000 0.000000e+000
      outer loop
         vertex 6.250000e+001 5.375000e+002 1.000000e+002
         vertex -1.339603e+002 5.375000e+002 -1.000000e+002
         vertex 6.250000e+001 5.375000e+002 -1.000000e+002
      endloop
   endfacet
   facet normal -1.000000e+000 1.012587e-016 0.000000e+000
      outer loop
         vertex -1.339603e+002 1.359817e+003 1.000000e+002
         vertex -1.339603e+002 1.359817e+003 -1.000000e+002
         vertex -1.339603e+002 5.375000e+002 1.000000e+002
      endloop
   endfacet
   facet normal -1.000000e+000 1.012587e-016 0.000000e+000
      outer loop
         vertex -1.339603e+002 5.375000e+002 1.000000e+002
         vertex -1.339603e+002 1.359817e+003 -1.000000e+002
         vertex -1.339603e+002 5.375000e+002 -1.000000e+002
      endloop
   endfacet
   facet normal 0.000000e+000 1.000000e+000 0.000000e+000
      outer loop
         vertex 3.839603e+002 1.359817e+003 1.000000e+002
         vertex 3.839603e+002 1.359817e+003 -1.000000e+002
         vertex -1.339603e+002 1.359817e+003 1.000000e+002
      endloop
   endfacet
   facet normal 0.000000e+000 1.000000e+000 0.000000e+000
      outer loop
         vertex -1.339603e+002 1.359817e+003 1.000000e+002
         vertex 3.839603e+002 1.359817e+003 -1.000000e+002
         vertex -1.339603e+002 1.359817e+003 -1.000000e+002
      endloop
   endfacet
   facet normal 1.000000e+000 2.025174e-016 0.000000e+000
      outer loop
         vertex 3.839603e+002 5.375000e+002 1.000000e+002
         vertex 3.839603e+002 5.375000e+002 -1.000000e+002
         vertex 3.839603e+002 1.359817e+003 1.000000e+002
      endloop
   endfacet
   facet normal 1.000000e+000 2.025174e-016 0.000000e+000
      outer loop
         vertex 3.839603e+002 1.359817e+003 1.000000e+002
         vertex 3.839603e+002 5.375000e+002 -1.000000e+002
         vertex 3.839603e+002 1.359817e+003 -1.000000e+002
      endloop
   endfacet
   facet normal 0.000000e+000 -1.000000e+000 0.000000e+000
      outer loop
         vertex 1.875000e+002 5.375000e+002 1.000000e+002
         vertex 1.875000e+002 5.375000e+002 -1.000000e+002
         vertex 3.839603e+002 5.375000e+002 1.000000e+002
      endloop
   endfacet
   facet normal 0.000000e+000 -1.000000e+000 0.000000e+000
      outer loop
         vertex 3.839603e+002 5.375000e+002 1.000000e+002
         vertex 1.875000e+002 5.375000e+002 -1.000000e+002
         vertex 3.839603e+002 5.375000e+002 -1.000000e+002
      endloop
   endfacet
   facet normal -9.850305e-001 -1.723803e-001 0.000000e+000
      outer loop
         vertex 1.350000e+002 8.375000e+002 1.000000e+002
         vertex 1.350000e+002 8.375000e+002 -1.000000e+002
         vertex 1.875000e+002 5.375000e+002 1.000000e+002
      endloop
   endfacet
   facet normal -9.850305e-001 -1.723803e-001 0.000000e+000
      outer loop
         vertex 1.875000e+002 5.375000e+002 1.000000e+002
         vertex 1.350000e+002 8.375000e+002 -1.000000e+002
         vertex 1.875000e+002 5.375000e+002 -1.000000e+002
      endloop
   endfacet
   facet normal -1.000000e+000 -3.188143e-016 0.000000e+000
      outer loop
         vertex 1.350000e+002 1.272794e+003 1.000000e+002
         vertex 1.350000e+002 1.272794e+003 -1.000000e+002
         vertex 1.350000e+002 8.375000e+002 1.000000e+002
      endloop
   endfacet
   facet normal -1.000000e+000 -3.188143e-016 0.000000e+000
      outer loop
         vertex 1.350000e+002 8.375000e+002 1.000000e+002
         vertex 1.350000e+002 1.272794e+003 -1.000000e+002
         vertex 1.350000e+002 8.375000e+002 -1.000000e+002
      endloop
   endfacet
   facet normal 0.000000e+000 -1.000000e+000 0.000000e+000
      outer loop
         vertex 1.150000e+002 1.272794e+003 1.000000e+002
         vertex 1.150000e+002 1.272794e+003 -1.000000e+002
         vertex 1.350000e+002 1.272794e+003 1.000000e+002
      endloop
   endfacet
   facet normal 0.000000e+000 -1.000000e+000 0.000000e+000
      outer loop
         vertex 1.350000e+002 1.272794e+003 1.000000e+002
         vertex 1.150000e+002 1.272794e+003 -1.000000e+002
         vertex 1.350000e+002 1.272794e+003 -1.000000e+002
      endloop
   endfacet
   facet normal 1.000000e+000 0.000000e+000 0.000000e+000
      outer loop
         vertex 1.150000e+002 8.375000e+002 1.000000e+002
         vertex 1.150000e+002 8.375000e+002 -1.000000e+002
         vertex 1.150000e+002 1.272794e+003 1.000000e+002
      endloop
   endfacet
   facet normal 1.000000e+000 0.000000e+000 0.000000e+000
      outer loop
         vertex 1.150000e+002 1.272794e+003 1.000000e+002
         vertex 1.150000e+002 8.375000e+002 -1.000000e+002
         vertex 1.150000e+002 1.272794e+003 -1.000000e+002
      endloop
   endfacet
   facet normal 9.850305e-001 -1.723803e-001 0.000000e+000
      outer loop
         vertex 6.250000e+001 5.375000e+002 1.000000e+002
         vertex 6.250000e+001 5.375000e+002 -1.000000e+002
         vertex 1.150000e+002 8.375000e+002 1.000000e+002
      endloop
   endfacet
   facet normal 9.850305e-001 -1.723803e-001 0.000000e+000
      outer loop
         vertex 1.150000e+002 8.375000e+002 1.000000e+002
         vertex 6.250000e+001 5.375000e+002 -1.000000e+002
         vertex 1.150000e+002 8.375000e+002 -1.000000e+002
      endloop
   endfacet
   facet normal 0.000000e+000 0.000000e+000 -1.000000e+000
      outer loop
         vertex 3.839603e+002 5.375000e+002 -1.000000e+002
         vertex 1.875000e+002 5.375000e+002 -1.000000e+002
         vertex 1.350000e+002 8.375000e+002 -1.000000e+002
      endloop
   endfacet
   facet normal 0.000000e+000 0.000000e+000 -1.000000e+000
      outer loop
         vertex 3.839603e+002 5.375000e+002 -1.000000e+002
         vertex 1.350000e+002 8.375000e+002 -1.000000e+002
         vertex 3.839603e+002 1.359817e+003 -1.000000e+002
      endloop
   endfacet
   facet normal 0.000000e+000 0.000000e+000 -1.000000e+000
      outer loop
         vertex 3.839603e+002 1.359817e+003 -1.000000e+002
         vertex 1.350000e+002 8.375000e+002 -1.000000e+002
         vertex 1.350000e+002 1.272794e+003 -1.000000e+002
      endloop
   endfacet
   facet normal 0.000000e+000 0.000000e+000 -1.000000e+000
      outer loop
         vertex 3.839603e+002 1.359817e+003 -1.000000e+002
         vertex 1.350000e+002 1.272794e+003 -1.000000e+002
         vertex -1.339603e+002 1.359817e+003 -1.000000e+002
      endloop
   endfacet
   facet normal 0.000000e+000 0.000000e+000 -1.000000e+000
      outer loop
         vertex -1.339603e+002 1.359817e+003 -1.000000e+002
         vertex 1.350000e+002 1.272794e+003 -1.000000e+002
         vertex 1.150000e+002 1.272794e+003 -1.000000e+002
      endloop
   endfacet
   facet normal 0.000000e+000 0.000000e+000 -1.000000e+000
      outer loop
         vertex -1.339603e+002 1.359817e+003 -1.000000e+002
         vertex 1.150000e+002 1.272794e+003 -1.000000e+002
         vertex -1.339603e+002 5.375000e+002 -1.000000e+002
      endloop
   endfacet
   facet normal 0.000000e+000 0.000000e+000 -1.000000e+000
      outer loop
         vertex -1.339603e+002 5.375000e+002 -1.000000e+002
         vertex 1.150000e+002 1.272794e+003 -1.000000e+002
         vertex 1.150000e+002 8.375000e+002 -1.000000e+002
      endloop
   endfacet
   facet normal 0.000000e+000 0.000000e+000 -1.000000e+000
      outer loop
         vertex -1.339603e+002 5.375000e+002 -1.000000e+002
         vertex 1.150000e+002 8.375000e+002 -1.000000e+002
         vertex 6.250000e+001 5.375000e+002 -1.000000e+002
      endloop
   endfacet
   facet normal 0.000000e+000 0.000000e+000 1.000000e+000
      outer loop
         vertex -1.339603e+002 5.375000e+002 1.000000e+002
         vertex 6.250000e+001 5.375000e+002 1.000000e+002
         vertex 1.150000e+002 8.375000e+002 1.000000e+002
      endloop
   endfacet
   facet normal 0.000000e+000 0.000000e+000 1.000000e+000
      outer loop
         vertex -1.339603e+002 5.375000e+002 1.000000e+002
         vertex 1.150000e+002 8.375000e+002 1.000000e+002
         vertex -1.339603e+002 1.359817e+003 1.000000e+002
      endloop
   endfacet
   facet normal 0.000000e+000 0.000000e+000 1.000000e+000
      outer loop
         vertex -1.339603e+002 1.359817e+003 1.000000e+002
         vertex 1.150000e+002 8.375000e+002 1.000000e+002
         vertex 1.150000e+002 1.272794e+003 1.000000e+002
      endloop
   endfacet
   facet normal 0.000000e+000 0.000000e+000 1.000000e+000
      outer loop
         vertex -1.339603e+002 1.359817e+003 1.000000e+002
         vertex 1.150000e+002 1.272794e+003 1.000000e+002
         vertex 3.839603e+002 1.359817e+003 1.000000e+002
      endloop
   endfacet
   facet normal 0.000000e+000 0.000000e+000 1.000000e+000
      outer loop
         vertex 3.839603e+002 1.359817e+003 1.000000e+002
         vertex 1.150000e+002 1.272794e+003 1.000000e+002
         vertex 1.350000e+002 1.272794e+003 1.000000e+002
      endloop
   endfacet
   facet normal 0.000000e+000 0.000000e+000 1.000000e+000
      outer loop
         vertex 3.839603e+002 1.359817e+003 1.000000e+002
         vertex 1.350000e+002 1.272794e+003 1.000000e+002
         vertex 3.839603e+002 5.375000e+002 1.000000e+002
      endloop
   endfacet
   facet normal 0.000000e+000 0.000000e+000 1.000000e+000
      outer loop
         vertex 3.839603e+002 5.375000e+002 1.000000e+002
         vertex 1.350000e+002 1.272794e+003 1.000000e+002
         vertex 1.350000e+002 8.375000e+002 1.000000e+002
      endloop
   endfacet
   facet normal 0.000000e+000 0.000000e+000 1.000000e+000
      outer loop
         vertex 3.839603e+002 5.375000e+002 1.000000e+002
         vertex 1.350000e+002 8.375000e+002 1.000000e+002
         vertex 1.875000e+002 5.375000e+002 1.000000e+002
      endloop
   endfacet
endsolid