solid dymWall
   facet normal -1.000000e+000 -1.387779e-016 0.000000e+000
      outer loop
         vertex -2.500000e+001 2.500000e+001 1.000000e+002
         vertex -2.500000e+001 2.500000e+001 -1.000000e+002
         vertex -2.500000e+001 -2.500000e+001 1.000000e+002
      endloop
   endfacet
   facet normal -1.000000e+000 -1.387779e-016 0.000000e+000
      outer loop
         vertex -2.500000e+001 -2.500000e+001 1.000000e+002
         vertex -2.500000e+001 2.500000e+001 -1.000000e+002
         vertex -2.500000e+001 -2.500000e+001 -1.000000e+002
      endloop
   endfacet
   facet normal -1.387779e-016 1.000000e+000 0.000000e+000
      outer loop
         vertex 2.500000e+001 2.500000e+001 1.000000e+002
         vertex 2.500000e+001 2.500000e+001 -1.000000e+002
         vertex -2.500000e+001 2.500000e+001 1.000000e+002
      endloop
   endfacet
   facet normal -1.387779e-016 1.000000e+000 0.000000e+000
      outer loop
         vertex -2.500000e+001 2.500000e+001 1.000000e+002
         vertex 2.500000e+001 2.500000e+001 -1.000000e+002
         vertex -2.500000e+001 2.500000e+001 -1.000000e+002
      endloop
   endfacet
   facet normal 1.000000e+000 1.387779e-016 0.000000e+000
      outer loop
         vertex 2.500000e+001 -2.500000e+001 1.000000e+002
         vertex 2.500000e+001 -2.500000e+001 -1.000000e+002
         vertex 2.500000e+001 2.500000e+001 1.000000e+002
      endloop
   endfacet
   facet normal 1.000000e+000 1.387779e-016 0.000000e+000
      outer loop
         vertex 2.500000e+001 2.500000e+001 1.000000e+002
         vertex 2.500000e+001 -2.500000e+001 -1.000000e+002
         vertex 2.500000e+001 2.500000e+001 -1.000000e+002
      endloop
   endfacet
   facet normal 1.387779e-016 -1.000000e+000 0.000000e+000
      outer loop
         vertex -2.500000e+001 -2.500000e+001 1.000000e+002
         vertex -2.500000e+001 -2.500000e+001 -1.000000e+002
         vertex 2.500000e+001 -2.500000e+001 1.000000e+002
      endloop
   endfacet
   facet normal 1.387779e-016 -1.000000e+000 0.000000e+000
      outer loop
         vertex 2.500000e+001 -2.500000e+001 1.000000e+002
         vertex -2.500000e+001 -2.500000e+001 -1.000000e+002
         vertex 2.500000e+001 -2.500000e+001 -1.000000e+002
      endloop
   endfacet
   facet normal 0.000000e+000 0.000000e+000 -1.000000e+000
      outer loop
         vertex 2.500000e+001 2.500000e+001 -1.000000e+002
         vertex 2.500000e+001 -2.500000e+001 -1.000000e+002
         vertex -2.500000e+001 2.500000e+001 -1.000000e+002
      endloop
   endfacet
   facet normal 0.000000e+000 0.000000e+000 -1.000000e+000
      outer loop
         vertex -2.500000e+001 2.500000e+001 -1.000000e+002
         vertex 2.500000e+001 -2.500000e+001 -1.000000e+002
         vertex -2.500000e+001 -2.500000e+001 -1.000000e+002
      endloop
   endfacet
   facet normal 0.000000e+000 0.000000e+000 1.000000e+000
      outer loop
         vertex 2.500000e+001 -2.500000e+001 1.000000e+002
         vertex 2.500000e+001 2.500000e+001 1.000000e+002
         vertex -2.500000e+001 -2.500000e+001 1.000000e+002
      endloop
   endfacet
   facet normal 0.000000e+000 0.000000e+000 1.000000e+000
      outer loop
         vertex -2.500000e+001 -2.500000e+001 1.000000e+002
         vertex 2.500000e+001 2.500000e+001 1.000000e+002
         vertex -2.500000e+001 2.500000e+001 1.000000e+002
      endloop
   endfacet
endsolid